<svg width="22" height="22" viewBox="0 0 22 22" fill="none" xmlns="http://www.w3.org/2000/svg">
<path fill-rule="evenodd" clip-rule="evenodd" d="M17.11 14.2816C19.301 10.8045 18.8822 6.15429 15.8535 3.12563C12.3388 -0.389086 6.64032 -0.389086 3.1256 3.12563C-0.389117 6.64035 -0.389117 12.3388 3.1256 15.8536C6.15426 18.8822 10.8045 19.3011 14.2816 17.1101L18.682 21.5104L21.5104 18.682L17.11 14.2816ZM13.0251 5.95406C14.9777 7.90668 14.9777 11.0725 13.0251 13.0251C11.0725 14.9777 7.90665 14.9777 5.95403 13.0251C4.00141 11.0725 4.00141 7.90668 5.95403 5.95406C7.90665 4.00144 11.0725 4.00144 13.0251 5.95406Z" fill="#E0E0E0"/>
</svg>
