<svg width="97" height="40" viewBox="0 0 97 40" fill="none" xmlns="http://www.w3.org/2000/svg">
<g clip-path="url(#clip0)">
<path fill-rule="evenodd" clip-rule="evenodd" d="M32.5813 11.9334C32.6527 12.1837 32.6181 12.4516 32.4889 12.6775C30.9526 15.3646 28.448 18.8933 24.4764 17.8481C23.0263 17.4665 20.329 16.0573 17.2247 14.4355C12.8496 12.1497 7.66581 9.44147 4.02505 8.5921C3.29847 8.42256 2.87037 7.58828 3.30049 6.97863C6.27948 2.75711 11.1952 0 16.7548 0C24.2747 0 30.6165 5.04408 32.5813 11.9334Z" fill="#E0E0E0"/>
<path fill-rule="evenodd" clip-rule="evenodd" d="M32.034 27.4757C31.3666 31.2299 30.4472 34.5463 29.2865 35.4208C28.9881 35.6458 28.3008 35.4539 27.4507 35.2165C25.1966 34.5873 21.7976 33.6382 21.4649 39.2881C21.4412 39.6901 20.9892 39.9395 20.6438 39.7327C14.112 35.8175 6.26102 35.4225 3.62077 35.4084C3.22127 35.4061 2.96152 34.9623 3.13115 34.6008C4.91241 30.8018 3.62406 27.7225 2.22608 24.3817C0.869122 21.139 -0.591129 17.6496 0.552414 13.0158C1.64051 8.6062 9.09444 12.7819 15.9085 16.5992C18.2102 17.8886 20.4388 19.1371 22.3245 20C27.2301 22.2449 30.4427 19.4107 32.0698 17.2013C32.3969 16.7571 33.267 16.9975 33.2296 17.5479C33.2229 17.647 33.2158 17.7479 33.2085 17.8504C33.2099 17.8489 33.2106 17.8481 33.2106 17.8481C33.2073 17.887 33.2038 17.9268 33.1999 17.9677C33.1693 18.3854 33.1336 18.8289 33.0927 19.2925C33.0413 20.7239 33.267 22.7044 34.9741 25.0713C35.4117 25.678 35.1589 26.5711 34.4404 26.7792L32.034 27.4757Z" fill="#FFEB3B"/>
</g>
<path d="M44.2954 13C44.2101 13 44.1674 12.9627 44.1674 12.888L44.1514 1.992C44.1514 1.90667 44.1941 1.864 44.2794 1.864H45.7194L48.4234 8.168L48.3434 1.992C48.3434 1.90667 48.3914 1.864 48.4874 1.864H50.0714C50.1354 1.864 50.1674 1.90667 50.1674 1.992L50.1834 12.904C50.1834 12.968 50.1568 13 50.1034 13H48.6954L45.9274 7.112L46.0394 12.872C46.0394 12.9573 45.9914 13 45.8954 13H44.2954ZM55.1573 13.16C54.592 13.16 54.0693 13.016 53.5893 12.728C53.1093 12.4293 52.7253 12.0347 52.4373 11.544C52.16 11.0533 52.0213 10.5147 52.0213 9.928L52.0533 1.928C52.0533 1.88533 52.0747 1.864 52.1173 1.864H53.9093C53.952 1.864 53.9733 1.88533 53.9733 1.928V9.928C53.9733 10.2907 54.0853 10.6 54.3093 10.856C54.544 11.1013 54.8267 11.224 55.1573 11.224C55.4987 11.224 55.7813 11.1013 56.0053 10.856C56.24 10.6 56.3573 10.2907 56.3573 9.928V1.928C56.3573 1.88533 56.3787 1.864 56.4213 1.864H58.2133C58.256 1.864 58.2773 1.88533 58.2773 1.928L58.3093 9.928C58.3093 10.5253 58.1653 11.0693 57.8773 11.56C57.6 12.0507 57.2213 12.44 56.7413 12.728C56.272 13.016 55.744 13.16 55.1573 13.16ZM60.2767 13C60.234 13 60.2127 12.9733 60.2127 12.92L60.2447 1.928C60.2447 1.88533 60.266 1.864 60.3087 1.864H62.2607C62.3034 1.864 62.3407 1.88533 62.3727 1.928L63.8287 4.04L65.2847 1.928C65.3167 1.88533 65.354 1.864 65.3967 1.864H67.3647C67.4074 1.864 67.4287 1.88533 67.4287 1.928L67.4607 12.92C67.4607 12.9733 67.4394 13 67.3967 13H65.5887C65.546 13 65.5247 12.9733 65.5247 12.92L65.5087 4.76L63.8287 7.192L62.1647 4.76L62.1487 12.92C62.1487 12.9733 62.1274 13 62.0847 13H60.2767ZM69.5104 13C69.4678 13 69.4464 12.9733 69.4464 12.92L69.4784 1.928C69.4784 1.88533 69.4998 1.864 69.5424 1.864H72.6144C73.2224 1.864 73.7664 2.01333 74.2464 2.312C74.7264 2.6 75.1051 2.984 75.3824 3.464C75.6598 3.944 75.7984 4.46667 75.7984 5.032C75.7984 5.49067 75.6918 5.91733 75.4784 6.312C75.2758 6.70667 75.0304 7.02667 74.7424 7.272C75.0518 7.58133 75.2918 7.93867 75.4624 8.344C75.6331 8.74933 75.7184 9.176 75.7184 9.624C75.7184 10.2427 75.5691 10.808 75.2704 11.32C74.9718 11.832 74.5664 12.2427 74.0544 12.552C73.5531 12.8507 72.9931 13 72.3744 13H69.5104ZM71.3984 6.28H72.6144C72.9878 6.28 73.2864 6.152 73.5104 5.896C73.7451 5.62933 73.8624 5.34133 73.8624 5.032C73.8624 4.69067 73.7398 4.39733 73.4944 4.152C73.2491 3.896 72.9558 3.768 72.6144 3.768H71.3984V6.28ZM71.3824 11.048H72.3744C72.7584 11.048 73.0891 10.9093 73.3664 10.632C73.6438 10.344 73.7824 10.008 73.7824 9.624C73.7824 9.24 73.6438 8.90933 73.3664 8.632C73.0891 8.35467 72.7584 8.216 72.3744 8.216H71.3984L71.3824 11.048Z" fill="#E0E0E0"/>
<path d="M44.2634 36C44.1994 36 44.1674 35.96 44.1674 35.88L44.2154 19.392C44.2154 19.328 44.2474 19.296 44.3114 19.296H48.9194C49.8314 19.296 50.6474 19.52 51.3674 19.968C52.0874 20.4 52.6554 20.976 53.0714 21.696C53.4874 22.416 53.6954 23.2 53.6954 24.048C53.6954 24.736 53.5354 25.376 53.2154 25.968C52.9114 26.56 52.5434 27.04 52.1114 27.408C52.5754 27.872 52.9354 28.408 53.1914 29.016C53.4474 29.624 53.5754 30.264 53.5754 30.936C53.5754 31.864 53.3514 32.712 52.9034 33.48C52.4554 34.248 51.8474 34.864 51.0794 35.328C50.3274 35.776 49.4874 36 48.5594 36H44.2634ZM47.0954 25.92H48.9194C49.4794 25.92 49.9274 25.728 50.2634 25.344C50.6154 24.944 50.7914 24.512 50.7914 24.048C50.7914 23.536 50.6074 23.096 50.2394 22.728C49.8714 22.344 49.4314 22.152 48.9194 22.152H47.0954V25.92ZM47.0714 33.072H48.5594C49.1354 33.072 49.6314 32.864 50.0474 32.448C50.4634 32.016 50.6714 31.512 50.6714 30.936C50.6714 30.36 50.4634 29.864 50.0474 29.448C49.6314 29.032 49.1354 28.824 48.5594 28.824H47.0954L47.0714 33.072ZM56.3562 36C56.2922 36 56.2602 35.96 56.2602 35.88L56.3082 19.392C56.3082 19.328 56.3402 19.296 56.4042 19.296H61.2522C62.1162 19.296 62.9082 19.512 63.6282 19.944C64.3642 20.36 64.9482 20.928 65.3802 21.648C65.8122 22.352 66.0282 23.152 66.0282 24.048C66.0282 24.64 65.9402 25.176 65.7642 25.656C65.5882 26.12 65.3802 26.52 65.1402 26.856C64.9002 27.176 64.6842 27.416 64.4922 27.576C65.3562 28.536 65.7882 29.664 65.7882 30.96L65.8122 35.88C65.8122 35.96 65.7722 36 65.6922 36H62.9802C62.9162 36 62.8842 35.976 62.8842 35.928V30.96C62.8842 30.384 62.6762 29.888 62.2602 29.472C61.8602 29.04 61.3642 28.824 60.7722 28.824H59.1882L59.1642 35.88C59.1642 35.96 59.1322 36 59.0682 36H56.3562ZM59.1882 25.944H61.2522C61.7482 25.944 62.1882 25.76 62.5722 25.392C62.9562 25.024 63.1482 24.576 63.1482 24.048C63.1482 23.536 62.9562 23.096 62.5722 22.728C62.2042 22.36 61.7642 22.176 61.2522 22.176H59.1882V25.944ZM67.9823 35.88L70.9583 19.392C70.9743 19.328 71.0143 19.296 71.0783 19.296H74.5583C74.6223 19.296 74.6623 19.328 74.6783 19.392L77.5343 35.88C77.5503 35.96 77.5183 36 77.4383 36H74.7743C74.7103 36 74.6703 35.96 74.6543 35.88L74.3903 34.128H71.1263L70.8623 35.88C70.8463 35.96 70.8063 36 70.7423 36H68.0783C68.0143 36 67.9823 35.96 67.9823 35.88ZM71.6063 31.56H73.9103L72.9263 24.816L72.7823 23.928L72.6863 24.816L71.6063 31.56ZM80.1205 36C80.0405 36 80.0005 35.96 80.0005 35.88L80.0245 19.392C80.0245 19.328 80.0565 19.296 80.1205 19.296H82.8085C82.8725 19.296 82.9045 19.328 82.9045 19.392L82.9285 35.88C82.9285 35.96 82.8965 36 82.8325 36H80.1205ZM86.2156 36C86.0876 36 86.0236 35.944 86.0236 35.832L85.9996 19.488C85.9996 19.36 86.0636 19.296 86.1916 19.296H88.3516L92.4076 28.752L92.2876 19.488C92.2876 19.36 92.3596 19.296 92.5036 19.296H94.8796C94.9756 19.296 95.0236 19.36 95.0236 19.488L95.0476 35.856C95.0476 35.952 95.0076 36 94.9276 36H92.8156L88.6636 27.168L88.8316 35.808C88.8316 35.936 88.7596 36 88.6156 36H86.2156Z" fill="#FFEB3B"/>
<defs>
<clipPath id="clip0">
<rect width="35.1899" height="40" fill="white" transform="matrix(-1 0 0 1 35.1899 0)"/>
</clipPath>
</defs>
</svg>
