<svg width="97" height="40" viewBox="0 0 97 40" fill="none" xmlns="http://www.w3.org/2000/svg">
<path fill-rule="evenodd" clip-rule="evenodd" d="M31.8726 27.9065C31.7048 27.9551 31.5756 28.0891 31.5325 28.2584C30.9733 30.4574 30.2582 32.881 29.3698 35.5612C29.1747 36.15 28.2159 35.8169 27.0358 35.4071C24.6123 34.5654 21.2557 33.3995 21.6635 39.2246C21.692 39.6312 21.2513 39.9284 20.8906 39.7387C14.9589 36.6194 6.7642 35.7917 4.31905 35.6076C3.97402 35.5819 3.75709 35.2169 3.88862 34.8967C5.9296 29.9318 4.7112 27.6157 3.32224 24.9757C2.38555 23.1955 1.37157 21.2682 1.22703 18.2822C0.960278 12.7672 3.06752 7.48467 9.57059 3.31289C14.218 0.331541 22.5767 0.490809 27.7301 5.15338C31.0768 8.18138 33.4798 11.6025 33.1259 18.7375C33.1214 18.9052 33.1127 19.0816 33.1034 19.2666C33.0287 20.7657 32.9256 22.8361 34.8808 25.5308C35.3066 26.1176 35.062 26.9831 34.3655 27.1848L31.8726 27.9065Z" fill="#FFEB3B"/>
<path d="M7.3988 24.6773C10.8288 28.893 11.3228 20.5893 17.5083 17.0181C23.6938 13.4469 31.9576 17.5103 28.2578 11.102C24.6568 4.86491 17.1523 2.71112 10.9667 6.28233C3.95585 10.3594 3.06996 19.3566 7.3988 24.6773Z" fill="#383D45"/>
<path d="M44.1976 13C44.1123 13 44.0696 12.9627 44.0696 12.888L44.0536 1.992C44.0536 1.90667 44.0963 1.864 44.1816 1.864H45.6216L48.3256 8.168L48.2456 1.992C48.2456 1.90667 48.2936 1.864 48.3896 1.864H49.9736C50.0376 1.864 50.0696 1.90667 50.0696 1.992L50.0856 12.904C50.0856 12.968 50.0589 13 50.0056 13H48.5976L45.8296 7.112L45.9416 12.872C45.9416 12.9573 45.8936 13 45.7976 13H44.1976ZM55.0595 13.16C54.4941 13.16 53.9715 13.016 53.4915 12.728C53.0115 12.4293 52.6275 12.0347 52.3395 11.544C52.0621 11.0533 51.9235 10.5147 51.9235 9.928L51.9555 1.928C51.9555 1.88533 51.9768 1.864 52.0195 1.864H53.8115C53.8541 1.864 53.8755 1.88533 53.8755 1.928V9.928C53.8755 10.2907 53.9875 10.6 54.2115 10.856C54.4461 11.1013 54.7288 11.224 55.0595 11.224C55.4008 11.224 55.6835 11.1013 55.9075 10.856C56.1421 10.6 56.2595 10.2907 56.2595 9.928V1.928C56.2595 1.88533 56.2808 1.864 56.3235 1.864H58.1155C58.1581 1.864 58.1795 1.88533 58.1795 1.928L58.2115 9.928C58.2115 10.5253 58.0675 11.0693 57.7795 11.56C57.5021 12.0507 57.1235 12.44 56.6435 12.728C56.1741 13.016 55.6461 13.16 55.0595 13.16ZM60.1789 13C60.1362 13 60.1149 12.9733 60.1149 12.92L60.1469 1.928C60.1469 1.88533 60.1682 1.864 60.2109 1.864H62.1629C62.2055 1.864 62.2429 1.88533 62.2749 1.928L63.7309 4.04L65.1869 1.928C65.2189 1.88533 65.2562 1.864 65.2989 1.864H67.2669C67.3095 1.864 67.3309 1.88533 67.3309 1.928L67.3629 12.92C67.3629 12.9733 67.3415 13 67.2989 13H65.4909C65.4482 13 65.4269 12.9733 65.4269 12.92L65.4109 4.76L63.7309 7.192L62.0669 4.76L62.0509 12.92C62.0509 12.9733 62.0295 13 61.9869 13H60.1789ZM69.4126 13C69.3699 13 69.3486 12.9733 69.3486 12.92L69.3806 1.928C69.3806 1.88533 69.4019 1.864 69.4446 1.864H72.5166C73.1246 1.864 73.6686 2.01333 74.1486 2.312C74.6286 2.6 75.0073 2.984 75.2846 3.464C75.5619 3.944 75.7006 4.46667 75.7006 5.032C75.7006 5.49067 75.5939 5.91733 75.3806 6.312C75.1779 6.70667 74.9326 7.02667 74.6446 7.272C74.9539 7.58133 75.1939 7.93867 75.3646 8.344C75.5353 8.74933 75.6206 9.176 75.6206 9.624C75.6206 10.2427 75.4713 10.808 75.1726 11.32C74.8739 11.832 74.4686 12.2427 73.9566 12.552C73.4553 12.8507 72.8953 13 72.2766 13H69.4126ZM71.3006 6.28H72.5166C72.8899 6.28 73.1886 6.152 73.4126 5.896C73.6473 5.62933 73.7646 5.34133 73.7646 5.032C73.7646 4.69067 73.6419 4.39733 73.3966 4.152C73.1513 3.896 72.8579 3.768 72.5166 3.768H71.3006V6.28ZM71.2846 11.048H72.2766C72.6606 11.048 72.9913 10.9093 73.2686 10.632C73.5459 10.344 73.6846 10.008 73.6846 9.624C73.6846 9.24 73.5459 8.90933 73.2686 8.632C72.9913 8.35467 72.6606 8.216 72.2766 8.216H71.3006L71.2846 11.048Z" fill="#FFEB3B"/>
<path d="M44.1655 36C44.1015 36 44.0695 35.96 44.0695 35.88L44.1175 19.392C44.1175 19.328 44.1495 19.296 44.2135 19.296H48.8215C49.7335 19.296 50.5495 19.52 51.2695 19.968C51.9895 20.4 52.5575 20.976 52.9735 21.696C53.3895 22.416 53.5975 23.2 53.5975 24.048C53.5975 24.736 53.4375 25.376 53.1175 25.968C52.8135 26.56 52.4455 27.04 52.0135 27.408C52.4775 27.872 52.8375 28.408 53.0935 29.016C53.3495 29.624 53.4775 30.264 53.4775 30.936C53.4775 31.864 53.2535 32.712 52.8055 33.48C52.3575 34.248 51.7495 34.864 50.9815 35.328C50.2295 35.776 49.3895 36 48.4615 36H44.1655ZM46.9975 25.92H48.8215C49.3815 25.92 49.8295 25.728 50.1655 25.344C50.5175 24.944 50.6935 24.512 50.6935 24.048C50.6935 23.536 50.5095 23.096 50.1415 22.728C49.7735 22.344 49.3335 22.152 48.8215 22.152H46.9975V25.92ZM46.9735 33.072H48.4615C49.0375 33.072 49.5335 32.864 49.9495 32.448C50.3655 32.016 50.5735 31.512 50.5735 30.936C50.5735 30.36 50.3655 29.864 49.9495 29.448C49.5335 29.032 49.0375 28.824 48.4615 28.824H46.9975L46.9735 33.072ZM56.2584 36C56.1944 36 56.1624 35.96 56.1624 35.88L56.2104 19.392C56.2104 19.328 56.2424 19.296 56.3064 19.296H61.1544C62.0184 19.296 62.8104 19.512 63.5304 19.944C64.2664 20.36 64.8504 20.928 65.2824 21.648C65.7144 22.352 65.9304 23.152 65.9304 24.048C65.9304 24.64 65.8424 25.176 65.6664 25.656C65.4904 26.12 65.2824 26.52 65.0424 26.856C64.8024 27.176 64.5864 27.416 64.3944 27.576C65.2584 28.536 65.6904 29.664 65.6904 30.96L65.7144 35.88C65.7144 35.96 65.6744 36 65.5944 36H62.8824C62.8184 36 62.7864 35.976 62.7864 35.928V30.96C62.7864 30.384 62.5784 29.888 62.1624 29.472C61.7624 29.04 61.2664 28.824 60.6744 28.824H59.0904L59.0664 35.88C59.0664 35.96 59.0344 36 58.9704 36H56.2584ZM59.0904 25.944H61.1544C61.6504 25.944 62.0904 25.76 62.4744 25.392C62.8584 25.024 63.0504 24.576 63.0504 24.048C63.0504 23.536 62.8584 23.096 62.4744 22.728C62.1064 22.36 61.6664 22.176 61.1544 22.176H59.0904V25.944ZM67.8845 35.88L70.8605 19.392C70.8765 19.328 70.9165 19.296 70.9805 19.296H74.4605C74.5245 19.296 74.5645 19.328 74.5805 19.392L77.4365 35.88C77.4525 35.96 77.4205 36 77.3405 36H74.6765C74.6125 36 74.5725 35.96 74.5565 35.88L74.2925 34.128H71.0285L70.7645 35.88C70.7485 35.96 70.7085 36 70.6445 36H67.9805C67.9165 36 67.8845 35.96 67.8845 35.88ZM71.5085 31.56H73.8125L72.8285 24.816L72.6845 23.928L72.5885 24.816L71.5085 31.56ZM80.0227 36C79.9427 36 79.9027 35.96 79.9027 35.88L79.9267 19.392C79.9267 19.328 79.9587 19.296 80.0227 19.296H82.7107C82.7747 19.296 82.8067 19.328 82.8067 19.392L82.8307 35.88C82.8307 35.96 82.7987 36 82.7347 36H80.0227ZM86.1177 36C85.9897 36 85.9257 35.944 85.9257 35.832L85.9017 19.488C85.9017 19.36 85.9657 19.296 86.0937 19.296H88.2537L92.3097 28.752L92.1897 19.488C92.1897 19.36 92.2617 19.296 92.4057 19.296H94.7817C94.8777 19.296 94.9257 19.36 94.9257 19.488L94.9497 35.856C94.9497 35.952 94.9097 36 94.8297 36H92.7177L88.5657 27.168L88.7337 35.808C88.7337 35.936 88.6617 36 88.5177 36H86.1177Z" fill="#E0E0E0"/>
</svg>
